<?xml version="1.0" standalone="no"?>
<!DOCTYPE svg PUBLIC "-//W3C//DTD SVG 20010904//EN"
 "http://www.w3.org/TR/2001/REC-SVG-20010904/DTD/svg10.dtd">
<svg version="1.0" xmlns="http://www.w3.org/2000/svg"
 width="500.000000pt" height="500.000000pt" viewBox="0 0 500.000000 500.000000"
 preserveAspectRatio="xMidYMid meet">

<g transform="translate(0.000000,500.000000) scale(0.100000,-0.100000)"
fill="#000000" stroke="none">
<path d="M0 2500 l0 -2500 2500 0 2500 0 0 2500 0 2500 -2500 0 -2500 0 0
-2500z m2640 845 l106 -105 54 55 c47 47 60 55 92 55 l38 0 0 -160 0 -160
-440 0 -440 0 0 160 0 160 37 0 c32 0 46 -8 95 -57 l58 -58 108 108 c100 100
109 107 147 107 37 0 47 -7 145 -105z m265 -400 c18 -18 25 -35 25 -65 l0 -40
60 0 61 0 -3 -142 -3 -143 -57 3 -58 4 0 -50 c0 -107 -68 -246 -154 -317 -96
-78 -238 -117 -352 -96 -36 6 -89 23 -120 36 -66 29 -154 111 -194 180 -31 53
-60 156 -60 213 l0 32 -55 0 -55 0 0 140 0 140 55 0 c51 0 55 2 55 24 0 39 20
83 43 94 14 7 157 11 405 11 l383 1 24 -25z m281 -1068 c10 4 14 -4 14 -31 0
-43 -5 -44 -32 -11 -28 36 -91 35 -115 -1 -25 -39 -21 -119 8 -150 38 -40 99
-30 99 17 0 22 -5 29 -20 29 -11 0 -20 5 -20 10 0 6 23 10 50 10 28 0 50 -4
50 -10 0 -5 -4 -10 -10 -10 -5 0 -10 -15 -10 -34 0 -31 -4 -36 -36 -46 -112
-37 -209 49 -174 154 19 60 78 89 149 75 18 -4 40 -5 47 -2z m-2256 -27 c0
-35 -10 -38 -28 -10 -14 23 -64 27 -80 7 -16 -18 -3 -33 58 -65 51 -28 55 -32
58 -70 4 -55 -21 -72 -106 -69 l-62 1 0 33 c0 40 11 41 44 8 28 -28 67 -33 86
-10 16 20 -2 43 -50 63 -51 21 -70 41 -70 75 0 49 24 67 92 67 58 0 58 0 58
-30z m170 20 c0 -5 -7 -10 -15 -10 -12 0 -15 -18 -15 -100 0 -82 3 -100 15
-100 8 0 15 -4 15 -10 0 -5 -25 -10 -55 -10 -30 0 -55 5 -55 10 0 6 7 10 15
10 12 0 15 18 15 100 0 82 -3 100 -15 100 -8 0 -15 5 -15 10 0 6 25 10 55 10
30 0 55 -4 55 -10z m164 -65 c27 -42 53 -78 57 -81 5 -3 9 27 9 65 0 56 -3 71
-15 71 -8 0 -15 5 -15 10 0 6 18 10 40 10 22 0 40 -4 40 -10 0 -5 -7 -10 -15
-10 -12 0 -15 -19 -15 -110 0 -98 -2 -110 -17 -110 -10 0 -30 19 -45 43 -15
23 -43 64 -62 92 l-36 50 0 -83 c0 -66 3 -82 15 -82 8 0 15 -4 15 -10 0 -5
-18 -10 -40 -10 -22 0 -40 5 -40 10 0 6 5 10 10 10 6 0 10 40 10 100 0 60 -4
100 -10 100 -5 0 -10 5 -10 10 0 6 17 10 38 10 35 0 39 -4 86 -75z m346 40 c0
-41 -12 -45 -28 -10 -10 21 -19 25 -52 25 l-40 0 0 -45 c0 -41 2 -45 25 -45
16 0 25 6 25 15 0 8 7 15 15 15 11 0 15 -11 15 -40 0 -29 -4 -40 -15 -40 -8 0
-15 7 -15 15 0 9 -9 15 -25 15 -23 0 -25 -4 -25 -45 0 -41 2 -45 25 -45 14 0
25 -4 25 -10 0 -6 -28 -10 -65 -10 -37 0 -65 4 -65 10 0 6 7 10 15 10 12 0 15
18 15 100 0 82 -3 100 -15 100 -8 0 -15 5 -15 10 0 6 40 10 100 10 l100 0 0
-35z m120 25 c0 -5 -4 -10 -10 -10 -6 0 -10 -37 -10 -90 0 -80 2 -90 21 -100
30 -16 68 -4 79 26 6 14 10 57 10 95 0 55 -3 69 -15 69 -8 0 -15 5 -15 10 0 6
16 10 35 10 19 0 35 -4 35 -10 0 -5 -4 -10 -10 -10 -6 0 -10 -35 -10 -85 0
-78 -2 -88 -25 -110 -18 -19 -35 -25 -65 -25 -30 0 -47 6 -65 25 -23 22 -25
32 -25 110 0 50 -4 85 -10 85 -5 0 -10 5 -10 10 0 6 20 10 45 10 25 0 45 -4
45 -10z m270 0 c0 -5 -7 -10 -15 -10 -23 0 -22 -188 1 -197 27 -10 69 10 72
35 6 38 22 24 22 -18 l0 -40 -95 0 c-88 0 -122 11 -75 23 18 5 20 14 20 101 0
79 -3 96 -15 96 -8 0 -15 5 -15 10 0 6 23 10 50 10 28 0 50 -4 50 -10z m350 0
c0 -5 -7 -10 -15 -10 -23 0 -22 -188 1 -197 27 -10 69 10 72 35 6 38 22 24 22
-18 l0 -40 -95 0 c-88 0 -122 11 -75 23 18 5 20 14 20 101 0 79 -3 96 -15 96
-8 0 -15 5 -15 10 0 6 23 10 50 10 28 0 50 -4 50 -10z m286 -100 c24 -58 49
-106 54 -108 26 -9 5 -22 -36 -22 -39 0 -45 3 -40 16 14 36 -3 54 -49 54 -36
0 -45 -4 -51 -22 -4 -13 -2 -24 5 -26 24 -8 9 -22 -24 -22 -37 0 -43 6 -22 24
8 6 31 57 53 114 25 66 44 101 52 100 8 -2 34 -50 58 -108z m174 100 c0 -5 -4
-10 -10 -10 -6 0 -10 -37 -10 -90 0 -80 2 -90 21 -100 30 -16 68 -4 79 26 6
14 10 57 10 95 0 55 -3 69 -15 69 -8 0 -15 5 -15 10 0 6 16 10 35 10 19 0 35
-4 35 -10 0 -5 -4 -10 -10 -10 -6 0 -10 -35 -10 -85 0 -78 -2 -88 -25 -110
-18 -19 -35 -25 -65 -25 -30 0 -47 6 -65 25 -23 22 -25 32 -25 110 0 50 -4 85
-10 85 -5 0 -10 5 -10 10 0 6 20 10 45 10 25 0 45 -4 45 -10z m540 0 c0 -5 -7
-10 -16 -10 -12 0 -14 -9 -12 -42 l3 -43 53 -3 52 -3 0 45 c0 34 -4 46 -15 46
-8 0 -15 5 -15 10 0 6 23 10 50 10 28 0 50 -4 50 -10 0 -5 -4 -10 -10 -10 -6
0 -10 -40 -10 -100 0 -60 4 -100 10 -100 6 0 10 -4 10 -10 0 -5 -22 -10 -50
-10 -27 0 -50 5 -50 10 0 6 7 10 15 10 11 0 15 12 15 45 l0 45 -55 0 -55 0 0
-40 c0 -27 5 -43 15 -46 31 -12 13 -24 -35 -24 -27 0 -50 5 -50 10 0 6 5 10
10 10 6 0 10 40 10 100 0 60 -4 100 -10 100 -5 0 -10 5 -10 10 0 6 23 10 50
10 28 0 50 -4 50 -10z m400 -30 c0 -47 -11 -52 -27 -10 -9 23 -18 30 -37 30
l-26 0 0 -96 c0 -87 2 -96 20 -101 39 -10 19 -23 -35 -23 -53 0 -72 11 -40 24
12 4 15 25 15 101 l0 95 -26 0 c-19 0 -28 -7 -37 -30 -16 -42 -27 -37 -27 10
l0 40 110 0 110 0 0 -40z m240 5 c0 -41 -12 -45 -28 -10 -10 21 -18 25 -57 25
l-45 0 0 -40 c0 -38 2 -40 30 -40 20 0 30 5 30 15 0 8 5 15 10 15 6 0 10 -20
10 -45 0 -25 -4 -45 -10 -45 -5 0 -10 6 -10 14 0 16 -34 31 -50 21 -5 -3 -10
-26 -10 -51 l0 -44 39 0 c41 0 71 20 71 46 0 8 5 14 10 14 6 0 10 -18 10 -40
l0 -40 -105 0 c-63 0 -105 4 -105 10 0 6 7 10 15 10 12 0 15 18 15 100 0 82
-3 100 -15 100 -8 0 -15 5 -15 10 0 6 42 10 105 10 l105 0 0 -35z m218 19 c31
-21 31 -79 0 -95 -16 -8 -19 -14 -10 -17 8 -2 22 -24 32 -48 11 -24 24 -44 30
-44 5 0 10 -4 10 -10 0 -16 -57 -12 -74 6 -9 8 -16 23 -16 32 0 27 -29 62 -51
62 -16 0 -19 -7 -19 -45 0 -38 3 -45 20 -45 11 0 20 -4 20 -10 0 -5 -25 -10
-55 -10 -30 0 -55 5 -55 10 0 6 5 10 10 10 6 0 10 40 10 100 0 60 -4 100 -10
100 -5 0 -10 5 -10 10 0 17 142 12 168 -6z m-2923 -399 c0 -30 -4 -55 -10 -55
-6 0 -9 23 -7 55 5 71 17 71 17 0z m105 0 c0 -30 -4 -55 -10 -55 -5 0 -10 25
-10 55 0 30 5 55 10 55 6 0 10 -25 10 -55z m70 0 c0 -30 -4 -55 -10 -55 -5 0
-10 25 -10 55 0 30 5 55 10 55 6 0 10 -25 10 -55z m80 0 c0 -30 -4 -55 -10
-55 -5 0 -10 25 -10 55 0 30 5 55 10 55 6 0 10 -25 10 -55z m60 45 c0 -5 -2
-10 -4 -10 -3 0 -8 5 -11 10 -3 6 -1 10 4 10 6 0 11 -4 11 -10z m140 -45 c0
-30 -4 -55 -10 -55 -5 0 -10 25 -10 55 0 30 5 55 10 55 6 0 10 -25 10 -55z
m50 24 c0 -10 -5 -19 -11 -19 -6 0 -1 -13 11 -30 12 -16 17 -30 11 -30 -17 0
-43 58 -30 66 6 3 9 15 6 25 -3 11 -1 17 4 13 5 -3 9 -14 9 -25z m80 -24 c0
-30 -4 -55 -10 -55 -5 0 -10 25 -10 55 0 30 5 55 10 55 6 0 10 -25 10 -55z
m124 41 c-4 -9 6 -20 25 -31 21 -11 31 -22 30 -38 -1 -16 -3 -17 -6 -5 -2 9
-13 20 -23 23 -26 8 -43 32 -36 50 3 8 8 15 10 15 3 0 3 -6 0 -14z m56 4 c0
-5 -2 -10 -4 -10 -3 0 -8 5 -11 10 -3 6 -1 10 4 10 6 0 11 -4 11 -10z m60 6
c0 -3 -4 -8 -10 -11 -5 -3 -10 -1 -10 4 0 6 5 11 10 11 6 0 10 -2 10 -4z m40
-51 c0 -30 -4 -55 -10 -55 -5 0 -10 25 -10 55 0 30 5 55 10 55 6 0 10 -25 10
-55z m168 25 c-8 -24 -7 -35 7 -56 16 -25 16 -25 -4 -14 -24 12 -29 68 -9 88
17 17 18 15 6 -18z m82 -26 c0 -23 -6 -37 -21 -44 -20 -11 -20 -11 -4 14 14
21 15 32 6 57 -9 27 -9 30 4 19 8 -7 15 -27 15 -46z m70 1 c0 -30 -4 -55 -10
-55 -5 0 -10 25 -10 55 0 30 5 55 10 55 6 0 10 -25 10 -55z m60 45 c0 -5 -2
-10 -4 -10 -3 0 -8 5 -11 10 -3 6 -1 10 4 10 6 0 11 -4 11 -10z m122 -30 c-3
-24 1 -47 9 -58 13 -15 12 -16 -3 -3 -18 14 -27 101 -10 101 4 0 6 -18 4 -40z
m132 26 c-4 -9 6 -20 25 -31 21 -11 31 -22 30 -38 -1 -16 -3 -17 -6 -5 -2 9
-13 20 -23 23 -26 8 -43 32 -36 50 3 8 8 15 10 15 3 0 3 -6 0 -14z m56 4 c0
-5 -2 -10 -4 -10 -3 0 -8 5 -11 10 -3 6 -1 10 4 10 6 0 11 -4 11 -10z m137
-19 c-9 -23 -7 -34 6 -55 15 -22 15 -25 1 -19 -27 10 -37 52 -19 79 21 32 26
30 12 -5z m73 19 c0 -5 -2 -10 -4 -10 -3 0 -8 5 -11 10 -3 6 -1 10 4 10 6 0
11 -4 11 -10z m109 -47 c11 -29 17 -53 13 -53 -10 0 -52 93 -45 103 7 12 8 9
32 -50z m121 12 c17 -25 30 -51 28 -57 -2 -6 -17 10 -34 35 -16 26 -32 47 -36
47 -5 0 -8 5 -8 10 0 22 21 8 50 -35z m180 -10 c0 -30 -3 -55 -7 -55 -5 0 -8
25 -8 55 0 30 3 55 8 55 4 0 7 -25 7 -55z m60 45 c0 -5 -2 -10 -4 -10 -3 0 -8
5 -11 10 -3 6 -1 10 4 10 6 0 11 -4 11 -10z m65 -45 c0 -30 -4 -55 -10 -55 -6
0 -9 23 -7 55 5 71 17 71 17 0z m114 9 c17 -25 31 -50 29 -56 -2 -5 -19 13
-38 39 -41 57 -45 63 -33 63 5 0 24 -21 42 -46z m111 -9 c0 -30 -3 -55 -7 -55
-5 0 -8 25 -8 55 0 30 3 55 8 55 4 0 7 -25 7 -55z m80 5 c0 -9 -6 -24 -13 -34
-12 -16 -13 -14 -9 18 2 21 -1 43 -9 54 -11 13 -9 13 9 -2 12 -11 22 -27 22
-36z m-390 -6 c0 -8 -5 -12 -10 -9 -6 4 -8 11 -5 16 9 14 15 11 15 -7z m-1900
-44 c0 -5 -5 -10 -11 -10 -5 0 -7 5 -4 10 3 6 8 10 11 10 2 0 4 -4 4 -10z
m-120 -105 c0 -30 -4 -55 -10 -55 -5 0 -10 25 -10 55 0 30 5 55 10 55 6 0 10
-25 10 -55z m70 0 c0 -30 -4 -55 -10 -55 -5 0 -10 25 -10 55 0 30 5 55 10 55
6 0 10 -25 10 -55z m119 -2 c11 -29 17 -53 13 -53 -10 0 -52 93 -45 103 7 12
8 9 32 -50z m86 2 c0 -30 -4 -55 -10 -55 -6 0 -9 23 -7 55 5 71 17 71 17 0z
m50 20 c0 -16 -6 -30 -15 -33 -13 -5 -13 -3 -1 12 12 14 13 21 2 38 -10 16
-10 19 1 16 7 -3 13 -17 13 -33z m70 -20 c0 -30 -4 -55 -10 -55 -6 0 -9 23 -7
55 5 71 17 71 17 0z m50 20 c0 -16 -6 -30 -15 -33 -13 -5 -13 -3 -1 12 12 14
13 21 2 38 -10 16 -10 19 1 16 7 -3 13 -17 13 -33z m75 -20 c0 -30 -4 -55 -10
-55 -5 0 -10 25 -10 55 0 30 5 55 10 55 6 0 10 -25 10 -55z m109 14 l30 -40 4
43 c3 38 4 36 5 -14 1 -32 -1 -58 -5 -58 -5 0 -21 21 -38 48 l-30 47 -6 -50
-6 -50 -1 58 c-1 32 2 57 8 57 5 0 23 -18 39 -41z m121 -14 c0 -30 -4 -55 -10
-55 -5 0 -10 25 -10 55 0 30 5 55 10 55 6 0 10 -25 10 -55z m60 45 c0 -5 -2
-10 -4 -10 -3 0 -8 5 -11 10 -3 6 -1 10 4 10 6 0 11 -4 11 -10z m380 -45 c0
-30 -4 -55 -10 -55 -5 0 -10 25 -10 55 0 30 5 55 10 55 6 0 10 -25 10 -55z
m109 14 l30 -40 4 43 c3 38 4 36 5 -14 1 -32 -1 -58 -5 -58 -5 0 -21 21 -38
48 l-30 47 -6 -50 -6 -50 -1 58 c-1 32 2 57 8 57 5 0 23 -18 39 -41z m209 -4
c12 -24 18 -47 13 -49 -5 -3 -18 17 -29 44 -26 62 -14 66 16 5z m72 -10 c0
-30 -4 -55 -10 -55 -5 0 -10 25 -10 55 0 30 5 55 10 55 6 0 10 -25 10 -55z
m80 0 c0 -30 -4 -55 -10 -55 -5 0 -10 25 -10 55 0 30 5 55 10 55 6 0 10 -25
10 -55z m200 0 c0 -30 -4 -55 -10 -55 -5 0 -10 25 -10 55 0 30 5 55 10 55 6 0
10 -25 10 -55z m130 0 c0 -30 -4 -55 -10 -55 -5 0 -10 25 -10 55 0 30 5 55 10
55 6 0 10 -25 10 -55z m60 30 c0 -8 -4 -17 -10 -20 -6 -4 -4 -17 5 -36 9 -16
11 -29 6 -29 -5 0 -16 14 -25 30 -8 18 -10 30 -4 30 6 0 8 11 6 24 -4 17 -1
23 9 19 7 -3 13 -11 13 -18z m83 -6 c19 -33 23 -79 7 -79 -5 0 -10 13 -10 28
0 16 -7 37 -15 48 -16 21 -19 34 -7 34 4 0 15 -14 25 -31z m-1213 -29 c5 0 10
-7 10 -17 0 -14 -2 -15 -17 -1 -10 8 -26 18 -35 21 -10 4 -18 15 -18 26 0 19
2 18 25 -4 13 -14 29 -25 35 -25z m120 0 c5 0 10 -7 10 -17 0 -14 -2 -15 -17
-1 -10 8 -26 18 -35 21 -10 4 -18 15 -18 26 0 19 2 18 25 -4 13 -14 29 -25 35
-25z m740 0 c5 0 10 -7 10 -17 0 -14 -2 -15 -17 -1 -10 8 -26 18 -35 21 -10 4
-18 15 -18 26 0 19 2 18 25 -4 13 -14 29 -25 35 -25z m-970 -40 c0 -5 -5 -10
-11 -10 -5 0 -7 5 -4 10 3 6 8 10 11 10 2 0 4 -4 4 -10z m1110 0 c0 -5 -5 -10
-11 -10 -5 0 -7 5 -4 10 3 6 8 10 11 10 2 0 4 -4 4 -10z"/>
<path d="M2370 3275 l-84 -85 49 -50 c42 -43 55 -50 87 -50 l38 0 0 135 c0 74
-1 135 -3 135 -1 0 -40 -38 -87 -85z"/>
<path d="M2530 3222 l0 -132 33 0 c26 0 43 10 82 50 l50 50 -83 83 -82 82 0
-133z"/>
<path d="M2120 3177 l0 -87 80 0 c44 0 80 3 80 8 0 4 -36 43 -80 87 l-80 80 0
-88z"/>
<path d="M2775 3170 l-80 -80 83 0 82 0 0 80 c0 44 -1 80 -3 80 -1 0 -38 -36
-82 -80z"/>
<path d="M2160 2858 c-20 -22 -21 -31 -18 -228 l3 -206 32 -65 c18 -35 44 -75
58 -89 l25 -23 0 66 c0 65 1 67 25 67 25 0 25 -1 25 -88 l0 -88 35 -17 c20 -9
38 -17 40 -17 3 0 5 25 5 55 0 52 1 55 25 55 24 0 25 -2 25 -65 l0 -65 55 0
55 0 0 65 c0 62 1 65 25 65 22 0 24 -4 27 -59 l3 -59 33 13 32 14 0 96 c0 94
0 95 25 95 23 0 24 -2 27 -81 l3 -81 43 43 c24 24 56 67 70 94 27 49 27 54 30
268 3 196 2 221 -14 238 -16 18 -35 19 -345 19 -327 0 -328 0 -349 -22z m280
-93 c0 -25 -1 -25 -90 -25 -89 0 -90 0 -90 25 0 25 1 25 90 25 89 0 90 0 90
-25z m280 0 c0 -25 -1 -25 -85 -25 -84 0 -85 0 -85 25 0 25 1 25 85 25 84 0
85 0 85 -25z m-200 -185 c0 -79 0 -80 -25 -80 -25 0 -25 1 -25 80 0 79 0 80
25 80 25 0 25 -1 25 -80z m80 -165 c0 -9 8 -27 17 -42 16 -24 16 -26 -3 -40
-31 -23 -119 -45 -151 -37 -74 18 -124 60 -93 79 6 3 10 17 10 31 0 24 0 24
110 24 92 0 110 -2 110 -15z"/>
<path d="M2400 2382 c0 -12 62 -32 99 -32 31 0 101 24 101 34 0 4 -45 6 -100
6 -55 0 -100 -4 -100 -8z"/>
<path d="M1990 2700 l0 -90 30 0 30 0 0 90 0 90 -30 0 -30 0 0 -90z"/>
<path d="M2930 2700 l0 -90 35 0 35 0 0 90 0 90 -35 0 -35 0 0 -90z"/>
<path d="M2548 1774 c-17 -42 -12 -49 30 -42 18 3 18 5 2 42 l-16 40 -16 -40z"/>
<path d="M4110 1815 c0 -46 0 -46 33 -43 30 3 32 5 32 43 0 38 -2 40 -32 43
-33 3 -33 3 -33 -43z"/>
</g>
</svg>
